<svg width="100" height="200" viewBox="-30 -10 141 208" fill="none" xmlns="http://www.w3.org/2000/svg">
<g filter="url(#filter0_d_24_54)">
<path d="M40.7417 132.654C36.2066 137.871 35.5893 146.778 39.3628 152.55C43.1363 158.321 49.8718 158.771 54.4069 153.554L40.7417 132.654ZM54.4069 153.554L104.114 96.3744L90.4483 75.4743L40.7417 132.654L54.4069 153.554Z" fill="#B259F8"/>
<path d="M53.8534 35.5967C49.0546 30.6463 42.3531 31.4797 38.8852 37.4583C35.4173 43.4369 36.4962 52.2966 41.295 57.2471L53.8534 35.5967ZM100.546 83.7648L53.8534 35.5967L41.295 57.2471L87.9871 105.415L100.546 83.7648Z" fill="#B259F8"/>
</g>
<path d="M99 89.9844V88" stroke="#B259F8" stroke-width="3" stroke-linecap="round"/>
<path d="M96.7294 83.2725C100.462 83.7613 105.2 90.1251 103.148 94.1865C101.245 97.9517 101.715 93.207 100.517 92.4226C99.1846 91.5498 97.3526 89.7182 96.519 88.2334C95.1744 85.8386 92.5312 84.5483 91.2578 82.2803C89.9849 80.013 93.7846 81.2405 94.8354 82.2803C96.1613 83.5923 104.423 89.66 101.464 91.2099" stroke="#B259F8" stroke-width="3" stroke-linecap="round"/>
<defs>
<filter id="filter0_d_24_54" x="0.852997" y="0.366943" width="139.261" height="196.823" filterUnits="userSpaceOnUse" color-interpolation-filters="sRGB">
<feFlood flood-opacity="0" result="BackgroundImageFix"/>
<feColorMatrix in="SourceAlpha" type="matrix" values="0 0 0 0 0 0 0 0 0 0 0 0 0 0 0 0 0 0 127 0" result="hardAlpha"/>
<feOffset dy="4"/>
<feGaussianBlur stdDeviation="18"/>
<feComposite in2="hardAlpha" operator="out"/>
<feColorMatrix type="matrix" values="0 0 0 0 0.402597 0 0 0 0 0.172569 0 0 0 0 0.583333 0 0 0 1 0"/>
<feBlend mode="normal" in2="BackgroundImageFix" result="effect1_dropShadow_24_54"/>
<feBlend mode="normal" in="SourceGraphic" in2="effect1_dropShadow_24_54" result="shape"/>
</filter>
</defs>
</svg>
