<?xml version="1.0" standalone="no"?>
<!DOCTYPE svg PUBLIC "-//W3C//DTD SVG 20010904//EN"
 "http://www.w3.org/TR/2001/REC-SVG-20010904/DTD/svg10.dtd">
<svg version="1.0" xmlns="http://www.w3.org/2000/svg"
 width="1500.000000pt" height="1500.000000pt" viewBox="0 0 1500.000000 1500.000000"
 preserveAspectRatio="xMidYMid meet">

<g transform="translate(0.000000,1500.000000) scale(0.100000,-0.100000)"
fill="#FFFFFF" stroke="none">
<path d="M7218 11395 c-322 -39 -581 -115 -863 -254 -294 -145 -505 -299 -730
-533 -376 -389 -607 -854 -701 -1408 -22 -129 -30 -526 -14 -674 110 -1017
814 -1888 1779 -2202 267 -87 498 -123 780 -124 218 0 345 15 518 61 335 88
602 238 814 456 125 127 214 282 255 438 24 94 25 292 1 390 -65 264 -204 450
-444 591 -160 95 -334 160 -728 274 -311 90 -344 101 -440 142 -44 19 -105 43
-135 53 -134 44 -262 125 -370 235 -88 89 -132 159 -171 272 -106 309 -12 640
250 873 103 91 278 189 420 234 170 55 416 72 591 42 149 -27 380 -133 578
-266 114 -76 149 -88 193 -65 29 16 51 67 44 100 -13 57 -218 211 -390 291
-101 47 -341 130 -460 158 -496 119 -1047 50 -1459 -180 -315 -177 -528 -427
-597 -698 -32 -125 -24 -291 18 -416 79 -228 209 -375 432 -485 107 -53 182
-78 487 -164 148 -41 316 -95 374 -119 58 -24 130 -52 160 -62 154 -50 383
-208 552 -381 234 -240 367 -462 398 -669 55 -363 -190 -725 -581 -856 -181
-61 -356 -74 -586 -44 -756 99 -1420 549 -1801 1220 -129 228 -225 502 -273
780 -26 150 -37 514 -20 662 92 780 536 1450 1226 1846 451 259 1054 363 1580
272 488 -85 917 -303 1274 -650 451 -439 706 -997 736 -1615 7 -139 16 -172
51 -195 38 -25 81 -19 116 16 l31 31 -6 146 c-24 528 -205 1031 -526 1457
-382 507 -954 866 -1573 986 -251 49 -559 62 -790 34z m-58 -1078 c0 -2 -44
-30 -97 -63 -168 -103 -346 -291 -427 -452 -141 -280 -134 -631 18 -900 20
-35 45 -77 57 -93 11 -16 16 -29 11 -29 -27 0 -179 56 -262 97 -293 144 -424
472 -306 764 41 102 87 169 186 270 108 111 214 184 382 264 131 62 173 77
323 115 61 16 111 29 113 29 1 1 2 0 2 -2z m1026 -2198 c405 -138 596 -304
676 -586 33 -117 31 -270 -6 -378 -48 -142 -131 -259 -271 -383 -62 -56 -223
-168 -230 -160 -2 2 11 25 29 51 120 168 187 406 172 603 -20 267 -160 532
-436 828 -34 36 -60 66 -57 66 3 0 58 -18 123 -41z" />
<path  width="50px" height="50px" d="M2200 5619 c-72 -12 -167 -58 -219 -104 -86 -78 -134 -235 -112 -368
33 -198 177 -307 405 -307 118 0 220 43 290 120 l37 41 -77 60 -77 60 -36 -35
c-45 -43 -78 -56 -145 -56 -66 0 -134 33 -159 78 -24 42 -33 135 -17 192 36
133 222 186 317 89 16 -16 32 -29 36 -29 11 0 156 103 157 112 0 4 -22 29 -48
56 -77 79 -214 114 -352 91z" fill="#FF4A17"/>
<path d="M3230 5623 c-98 -12 -210 -71 -264 -139 -17 -21 -41 -65 -55 -98 -22
-52 -25 -76 -25 -166 0 -135 24 -201 98 -276 75 -75 140 -97 281 -98 90 0 120
4 165 22 195 77 290 322 209 538 -30 79 -112 163 -189 191 -57 22 -159 34
-220 26z m150 -213 c45 -32 70 -91 70 -168 0 -133 -68 -212 -183 -212 -40 0
-63 6 -87 23 -58 39 -74 70 -78 153 -6 110 25 175 100 213 56 29 131 25 178
-9z" fill="#FF4A17"/>
<path d="M7360 5619 c-125 -21 -228 -96 -283 -208 -31 -63 -32 -70 -32 -191 0
-114 2 -130 26 -180 65 -137 209 -210 391 -197 145 10 260 88 322 217 29 61
31 72 31 185 0 109 -2 125 -26 176 -50 107 -148 179 -270 199 -72 11 -83 11
-159 -1z m143 -193 c100 -41 137 -196 75 -308 -37 -66 -67 -83 -151 -83 -58 0
-78 4 -103 22 -83 59 -97 220 -27 312 47 61 137 86 206 57z" fill="#FF4A17"/>

<path d="M9285 5620 c-147 -22 -237 -115 -238 -245 -1 -121 67 -186 246 -234
95 -26 127 -44 127 -71 0 -31 -39 -50 -101 -50 -61 0 -103 23 -119 65 -8 22
-9 22 -97 9 -48 -8 -91 -14 -95 -14 -16 0 -7 -49 20 -101 33 -66 83 -103 172
-125 137 -35 295 0 369 81 51 56 63 84 63 156 0 113 -54 168 -212 215 -125 37
-148 49 -156 80 -9 37 24 64 78 64 32 0 47 -7 75 -35 l35 -35 89 16 c50 9 89
22 89 28 0 6 -11 34 -24 62 -49 105 -173 157 -321 134z"  />

<path d="M4040 5235 l0 -385 100 0 100 0 2 205 3 205 146 -202 145 -203 97 -3
97 -3 0 386 0 385 -100 0 -100 0 0 -206 c0 -114 -4 -203 -9 -200 -5 3 -66 86
-136 183 -175 244 -151 223 -257 223 l-88 0 0 -385z" fill="#FF4A17"/>

<path d="M5050 5525 l0 -95 120 0 120 0 0 -290 0 -290 105 0 105 0 0 290 0
290 114 0 113 0 15 90 c8 50 12 92 10 95 -3 3 -162 5 -354 5 l-348 0 0 -95z" fill="#FF4A17"/>

<path d="M6060 5237 l0 -387 105 0 105 0 0 135 c0 74 3 135 8 135 17 -1 33
-20 82 -100 64 -104 84 -126 135 -152 72 -37 215 -34 269 5 18 13 18 16 -4 91
l-23 77 -31 -7 c-74 -16 -113 -3 -146 51 -12 19 -33 41 -48 49 l-26 13 25 8
c48 15 107 65 128 108 29 59 29 153 0 209 -55 108 -134 137 -396 145 l-183 6
0 -386z m369 179 c13 -12 21 -31 21 -51 0 -49 -29 -69 -111 -73 l-69 -4 0 77
0 77 69 -4 c50 -2 75 -9 90 -22z" fill="#FF4A17"/>
<path d="M8190 5235 l0 -385 259 0 258 0 6 68 c4 37 7 79 7 95 l0 27 -160 0
-160 0 0 290 0 290 -105 0 -105 0 0 -385z" fill="#FF4A17"/>
<path d="M9990 5235 l0 -385 105 0 105 0 0 145 0 145 140 0 140 0 0 -145 0
-145 105 0 105 0 0 385 0 385 -105 0 -105 0 0 -145 0 -145 -140 0 -140 0 0
145 0 145 -105 0 -105 0 0 -385z"/>
<path d="M11097 5614 c-4 -4 -7 -178 -7 -386 l0 -378 110 0 110 0 -2 383 -3
382 -101 3 c-55 1 -103 0 -107 -4z" />
<path d="M11710 5235 l0 -385 105 0 105 0 0 140 0 140 145 0 145 0 0 95 0 95
-145 0 -145 0 0 55 0 55 160 0 160 0 0 95 0 95 -265 0 -265 0 0 -385z"/>
<path d="M12490 5525 l0 -95 120 0 120 0 0 -290 0 -290 105 0 105 0 2 288 3
287 113 3 c61 1 112 4 112 5 0 1 7 40 15 87 8 47 15 88 15 93 0 4 -160 7 -355
7 l-355 0 0 -95z"/>
</g>
</svg>
